<svg id="visual" viewBox="0 0 960 540" width="960" height="540" xmlns="http://www.w3.org/2000/svg" xmlns:xlink="http://www.w3.org/1999/xlink" version="1.1"><rect x="0" y="0" width="960" height="540" fill="#014F98"></rect><path d="M0 398L87 410L175 404L262 396L349 412L436 398L524 400L611 398L698 409L785 401L873 410L960 410L960 541L873 541L785 541L698 541L611 541L524 541L436 541L349 541L262 541L175 541L87 541L0 541Z" fill="#1f609e"></path><path d="M0 432L87 436L175 430L262 434L349 435L436 424L524 429L611 435L698 439L785 426L873 431L960 433L960 541L873 541L785 541L698 541L611 541L524 541L436 541L349 541L262 541L175 541L87 541L0 541Z" fill="#6485b6"></path><path d="M0 452L87 452L175 450L262 459L349 455L436 461L524 462L611 463L698 464L785 453L873 455L960 460L960 541L873 541L785 541L698 541L611 541L524 541L436 541L349 541L262 541L175 541L87 541L0 541Z" fill="#99acce"></path><path d="M0 480L87 482L175 490L262 478L349 482L436 485L524 485L611 489L698 482L785 480L873 480L960 482L960 541L873 541L785 541L698 541L611 541L524 541L436 541L349 541L262 541L175 541L87 541L0 541Z" fill="#ccd5e6"></path><path d="M0 507L87 512L175 510L262 506L349 519L436 517L524 508L611 512L698 519L785 513L873 515L960 519L960 541L873 541L785 541L698 541L611 541L524 541L436 541L349 541L262 541L175 541L87 541L0 541Z" fill="#ffffff"></path></svg>